#!OML:ASF E:/inclinewalkrobotboard/Project1/Captureday1/Session1/subject1.ASF
:FULLY-SPECIFIED
:DEGREES
51
root 0 0 0 12.472838544384256 8.675816446108291 -4.978364831020042
lowerback 13.831735576779597 3.8086634649769824 0.4038182325354053
upperback -4.547186644649569 4.549136308718175 -2.3000135201501015
thorax -12.083218116245558 2.1357673346296893 -3.318051941759117
lowerneck -11.075895317494277 8.388117530404065 16.568065861630497
upperneck 36.462209671600014 8.471198811140006 -5.30510292240346
head 15.463891438779328 5.613033985492633 -3.6940486929097993
rclavicle 7.381379702389898E-15 1.1599763923174412E-14
rhumerus -2.011578035927005 12.21164157812696 -77.31892557322058
rradius 36.16334424433639
rwrist -9.905545531567737
rhand -25.98862672050038 -20.6114277478405
rfingers 7.125019999999953
rthumb 0.5734602443645027 -51.15384321506427
lclavicle 3.5514334674009964E-15 6.0656286440980355E-15
lhumerus -46.05832813458038 16.494084263508213 67.8107368432402
lradius 55.54037684879361
lwrist -11.62616336871525
lhand -16.37175700443536 16.83944776506369
lfingers 7.125019999999882
lthumb 9.850678033748636 46.20828954541961
rfemur -2.0300151766839907 18.510791948758936 35.18267765722375
rtibia -6.809051783773942
rfoot 6.236454308091368 -27.635041121582518
rtoes -52.18121644913109
lfemur -23.357131990791572 -25.673546768151756 -20.91924221876332
ltibia 4.5197039951613505
lfoot -34.43744247994298 1.3545688914528977
ltoes -40.162676609923366
52
root 0 0 0 12.482798095725434 8.82464849314354 -4.986481394594158
lowerback 13.802252621349947 3.8273105939854446 0.4206032375702088
upperback -4.552361162350147 4.576672160145601 -2.2939481796291687
thorax -12.074582292703163 2.148704536634815 -3.3226650156429502
lowerneck -11.078911344980863 8.358027519623022 16.538300286048987
upperneck 36.45310282626697 8.430561358909564 -5.285294450742873
head 15.462169052358913 5.593877234057264 -3.6866687226693093
rclavicle 7.420166617998658E-15 1.1609806875984093E-14
rhumerus -2.0014015295523606 12.145296487246032 -77.27179585758506
rradius 36.07781346693086
rwrist -9.863559486934971
rhand -25.996979688648437 -20.628947609590206
rfingers 7.125019999999953
rthumb 0.5654208312145634 -51.17205046781082
lclavicle 3.573589692787336E-15 6.061905422209324E-15
lhumerus -46.0448788410069 16.497968159342932 67.80118964187281
lradius 55.54972863359034
lwrist -11.63454494619906
lhand -16.382219647313626 16.835179747175562
lfingers 7.125019999999881
lthumb 9.840578343034162 46.20458642831483
rfemur -1.9943107317045978 18.48589348670619 35.18174324080566
rtibia -6.806948167792228
rfoot 6.272191929515486 -27.635403036518063
rtoes -52.18817754309975
lfemur -23.298277360614104 -25.676405906373613 -20.94255314169186
ltibia 4.488551404882742
lfoot -34.38760614633702 1.3477805865824486
ltoes -40.167224259212134
53
root 0 0 0 12.48538152170115 8.879584414790166 -4.99248254473096
lowerback 13.796543968986429 3.8336484230803993 0.42689929921105063
upperback -4.5530045658677984 4.585927109181014 -2.2907051138933623
thorax -12.07243372554425 2.153154691627366 -3.3226906685685944
lowerneck -11.076204074413111 8.34990661246019 16.532444272379355
upperneck 36.45158766114223 8.419516463593721 -5.278887996185755
head 15.462273284922038 5.589017827466455 -3.684636618450035
rclavicle 7.412069211412061E-15 1.1601898166564651E-14
rhumerus -2.0260022628664824 12.12245755561775 -77.2626270470259
rradius 36.03617519908506
rwrist -9.839551174853163
rhand -25.996258614839952 -20.631236139188896
rfingers 7.125019999999953
rthumb 0.5661159070174957 -51.17429074338957
lclavicle 3.5751183707035755E-15 6.0480147728718846E-15
lhumerus -46.04265505007964 16.504913499769224 67.79325571442153
lradius 55.545629942900504
lwrist -11.643056839830432
lhand -16.385471920773362 16.832493634718485
lfingers 7.125019999999881
lthumb 9.837473480021547 46.20198152745509
rfemur -1.9796392078549028 18.48178964319959 35.18007592215612
rtibia -6.8138817774434095
rfoot 6.288278404138207 -27.640496747130555
rtoes -52.191994899908714
lfemur -23.281011038302363 -25.679255832519168 -20.948533115458154
ltibia 4.475060846733207
lfoot -34.37410974304595 1.3443742500697091
ltoes -40.167293841916994
54
root 0 0 0 12.483429650823112 8.879819618964703 -4.995055677181461
lowerback 13.80130969002888 3.832573754239295 0.4263082720637543
upperback -4.552084464646914 4.5843260109644275 -2.289292035945363
thorax -12.073498382178343 2.152564829953967 -3.3200156708530586
lowerneck -11.071871794677236 8.35243213062168 16.53691102393996
upperneck 36.45524686638174 8.423042486909429 -5.280274646377164
head 15.463530654259435 5.590929950890981 -3.685463565253089
rclavicle 7.401422712100153E-15 1.1600003940646752E-14
rhumerus -2.0541625768120304 12.117537037883041 -77.26473214757888
rradius 36.02001602153898
rwrist -9.824782066177804
rhand -25.992727889162506 -20.62945228027201
rfingers 7.125019999999953
rthumb 0.5695433806993897 -51.17224947219471
lclavicle 3.5828084742146415E-15 6.043037100627592E-15
lhumerus -46.04553135482658 16.51313093304516 67.78658516094725
lradius 55.536094333469705
lwrist -11.6519496093868
lhand -16.386308565163063 16.830272518000395
lfingers 7.125019999999881
lthumb 9.83668604873904 46.199677423346394
rfemur -1.9789988722070122 18.48319471204011 35.17846748384969
rtibia -6.817576750999905
rfoot 6.2927001395056905 -27.643150123774113
rtoes -52.19699631140492
lfemur -23.277707034825927 -25.68225431275311 -20.946915978787946
ltibia 4.466429785814547
lfoot -34.377807881752744 1.3455460668417292
ltoes -40.16354398407829
55
root 0 0 0 12.481524531173816 8.870002973408718 -4.995678323966576
lowerback 13.806645835408816 3.830532691991377 0.4249947651343986
upperback -4.551022392742835 4.581354478156804 -2.2886736437959145
thorax -12.074799116842975 2.1512541356770396 -3.3180315616269582
lowerneck -11.069286153528823 8.355575769730077 16.54108501945183
upperneck 36.457873868419405 8.427414123397213 -5.2823780065169466
head 15.4643120701995 5.593078307025891 -3.686408562905579
rclavicle 7.404301866258725E-15 1.1603315610744177E-14
rhumerus -2.0679298922719305 12.11725866918007 -77.26589133753706
rradius 36.0144856027967
rwrist -9.819823535316385
rhand -25.991111129294065 -20.629636459391424
rfingers 7.125019999999953
rthumb 0.5711142502613669 -51.17231288046901
lclavicle 3.5943805974780974E-15 6.044584070591276E-15
lhumerus -46.04908803956538 16.519668351057604 67.78266024272108
lradius 55.52806362840538
lwrist -11.656908587793342
lhand -16.38529688960267 16.82930685755948
lfingers 7.125019999999881
lthumb 9.837657660300238 46.19857933755586
rfemur -1.9846856533452986 18.485112145582697 35.177702205812366
rtibia -6.816362911174572
rfoot 6.290081933911658 -27.642872376502527
rtoes -52.19831073464477
lfemur -23.286863060386256 -25.680917297182095 -20.94390516243714
ltibia 4.471571228555547
lfoot -34.381608861705224 1.3431744845841926
ltoes -40.1623577747737
56
root 0 0 0 12.471799298779427 8.711651278500694 -4.983478080423409
lowerback 13.833284697714266 3.81144712268308 0.4081029009608119
upperback -4.546286278244304 4.55345183747794 -2.2956843665159967
thorax -12.082678406590752 2.137982951507415 -3.315146735006294
lowerneck -11.07056316642198 8.383550901610999 16.56656276652509
upperneck 36.46611466125675 8.465314526463258 -5.302046244744324
head 15.465434753995304 5.61052210153934 -3.6933955023398815
rclavicle 7.379668050532423E-15 1.1595047776428381E-14
rhumerus -2.011171625108396 12.219445124445468 -77.32599278353521
rradius 36.16682067058144
rwrist -9.907263128473105
rhand -25.988632040190794 -20.608266699205377
rfingers 7.125019999999953
rthumb 0.5734305589519266 -51.150672126528015
lclavicle 3.5469653432724516E-15 6.053370696171633E-15
lhumerus -46.061083131672234 16.479784802507773 67.82016333831945
lradius 55.54782167117039
lwrist -11.62424663002458
lhand -16.376563368635857 16.839859162502663
lfingers 7.125019999999881
lthumb 9.846021241711234 46.20896657330738
rfemur -2.023334026895859 18.509817512445707 35.18382023035851
rtibia -6.812605884607997
rfoot 6.239121027785746 -27.63582400095113
rtoes -52.18399969346314
lfemur -23.382122906185085 -25.6577700220778 -20.920633987333584
ltibia 4.555332625334465
lfoot -34.41951050730376 1.3408692454262212
ltoes -40.17744393166013
